dataset
version=1
nRows=19
nColumns=39
inDegrees=no
endheader
time	sternoclavicular_r2	sternoclavicular_r3	unrotscap_r3	unrotscap_r2	acromioclavicular_r2	acromioclavicular_r3	acromioclavicular_r1	unrothum_r1	unrothum_r3	unrothum_r2	elv_angle	shoulder_elv	shoulder1_r2	shoulder_rot	elbow_flexion	pro_sup	deviation	flexion	cmc_abduction	cmc_flexion	mp_flexion	ip_flexion	mcp2_flexion	mcp2_abduction	pm2_flexion	md2_flexion	mcp3_flexion	mcp3_abduction	pm3_flexion	md3_flexion	mcp4_flexion	mcp4_abduction	pm4_flexion	md4_flexion	mcp5_flexion	mcp5_abduction	pm5_flexion	md5_flexion
0.000000	-0.011778	-0.295685	0.149340	0.017941	-0.004131	0.104450	-0.109675	-0.092880	-0.012228	0.058389	0.019401	0.027437	0.146525	0.146525	1.384591	0.902405	0.000000	0.000000	0.000000	0.000000	0.000000	0.000000	0.000000	0.000000	0.000000	0.000000	0.000000	0.000000	0.000000	0.000000	0.000000	0.000000	0.000000	0.000000	0.000000	0.000000	0.000000	0.000000
0.005000	-0.011777	-0.295705	0.149378	0.017923	-0.004153	0.104472	-0.109706	-0.092857	-0.012287	0.058363	0.019363	0.027437	0.146525	0.146525	1.384841	0.906393	0.000000	0.000000	0.000000	0.000000	0.000000	0.000000	0.000000	0.000000	0.000000	0.000000	0.000000	0.000000	0.000000	0.000000	0.000000	0.000000	0.000000	0.000000	0.000000	0.000000	0.000000	0.000000
0.010000	-0.011776	-0.295725	0.149408	0.017903	-0.004176	0.104487	-0.109731	-0.092845	-0.012333	0.058338	0.019328	0.027437	0.146525	0.146525	1.385093	0.910343	0.000000	0.000000	0.000000	0.000000	0.000000	0.000000	0.000000	0.000000	0.000000	0.000000	0.000000	0.000000	0.000000	0.000000	0.000000	0.000000	0.000000	0.000000	0.000000	0.000000	0.000000	0.000000
0.015000	-0.011774	-0.295744	0.149434	0.017882	-0.004200	0.104499	-0.109754	-0.092839	-0.012372	0.058314	0.019294	0.027437	0.146525	0.146525	1.385345	0.914253	0.000000	0.000000	0.000000	0.000000	0.000000	0.000000	0.000000	0.000000	0.000000	0.000000	0.000000	0.000000	0.000000	0.000000	0.000000	0.000000	0.000000	0.000000	0.000000	0.000000	0.000000	0.000000
0.020000	-0.011772	-0.295762	0.149458	0.017861	-0.004223	0.104510	-0.109776	-0.092837	-0.012407	0.058290	0.019261	0.027437	0.146525	0.146525	1.385599	0.918124	0.000000	0.000000	0.000000	0.000000	0.000000	0.000000	0.000000	0.000000	0.000000	0.000000	0.000000	0.000000	0.000000	0.000000	0.000000	0.000000	0.000000	0.000000	0.000000	0.000000	0.000000	0.000000
0.025000	-0.011771	-0.295782	0.149481	0.017840	-0.004247	0.104519	-0.109797	-0.092836	-0.012441	0.058266	0.019229	0.027437	0.146525	0.146525	1.385854	0.921956	0.000000	0.000000	0.000000	0.000000	0.000000	0.000000	0.000000	0.000000	0.000000	0.000000	0.000000	0.000000	0.000000	0.000000	0.000000	0.000000	0.000000	0.000000	0.000000	0.000000	0.000000	0.000000
0.030000	-0.011769	-0.295801	0.149504	0.017819	-0.004269	0.104529	-0.109818	-0.092837	-0.012473	0.058243	0.019197	0.027437	0.146525	0.146525	1.386110	0.925750	0.000000	0.000000	0.000000	0.000000	0.000000	0.000000	0.000000	0.000000	0.000000	0.000000	0.000000	0.000000	0.000000	0.000000	0.000000	0.000000	0.000000	0.000000	0.000000	0.000000	0.000000	0.000000
0.035000	-0.011768	-0.295821	0.149526	0.017799	-0.004291	0.104538	-0.109839	-0.092837	-0.012505	0.058221	0.019167	0.027437	0.146525	0.146525	1.386367	0.929506	0.000000	0.000000	0.000000	0.000000	0.000000	0.000000	0.000000	0.000000	0.000000	0.000000	0.000000	0.000000	0.000000	0.000000	0.000000	0.000000	0.000000	0.000000	0.000000	0.000000	0.000000	0.000000
0.040000	-0.011766	-0.295841	0.149549	0.017779	-0.004313	0.104547	-0.109860	-0.092838	-0.012536	0.058199	0.019137	0.027437	0.146525	0.146525	1.386625	0.933225	0.000000	0.000000	0.000000	0.000000	0.000000	0.000000	0.000000	0.000000	0.000000	0.000000	0.000000	0.000000	0.000000	0.000000	0.000000	0.000000	0.000000	0.000000	0.000000	0.000000	0.000000	0.000000
0.045000	-0.011765	-0.295862	0.149571	0.017760	-0.004334	0.104556	-0.109881	-0.092838	-0.012568	0.058178	0.019107	0.027437	0.146525	0.146525	1.386883	0.936907	0.000000	0.000000	0.000000	0.000000	0.000000	0.000000	0.000000	0.000000	0.000000	0.000000	0.000000	0.000000	0.000000	0.000000	0.000000	0.000000	0.000000	0.000000	0.000000	0.000000	0.000000	0.000000
0.050000	-0.011764	-0.295883	0.149594	0.017741	-0.004354	0.104565	-0.109903	-0.092838	-0.012599	0.058158	0.019078	0.027437	0.146525	0.146525	1.387142	0.940551	0.000000	0.000000	0.000000	0.000000	0.000000	0.000000	0.000000	0.000000	0.000000	0.000000	0.000000	0.000000	0.000000	0.000000	0.000000	0.000000	0.000000	0.000000	0.000000	0.000000	0.000000	0.000000
0.055000	-0.011763	-0.295905	0.149617	0.017723	-0.004374	0.104574	-0.109924	-0.092838	-0.012631	0.058138	0.019050	0.027437	0.146525	0.146525	1.387401	0.944160	0.000000	0.000000	0.000000	0.000000	0.000000	0.000000	0.000000	0.000000	0.000000	0.000000	0.000000	0.000000	0.000000	0.000000	0.000000	0.000000	0.000000	0.000000	0.000000	0.000000	0.000000	0.000000
0.060000	-0.011762	-0.295926	0.149640	0.017706	-0.004393	0.104583	-0.109945	-0.092838	-0.012663	0.058118	0.019022	0.027437	0.146525	0.146525	1.387661	0.947732	0.000000	0.000000	0.000000	0.000000	0.000000	0.000000	0.000000	0.000000	0.000000	0.000000	0.000000	0.000000	0.000000	0.000000	0.000000	0.000000	0.000000	0.000000	0.000000	0.000000	0.000000	0.000000
0.065000	-0.011761	-0.295949	0.149663	0.017689	-0.004412	0.104592	-0.109967	-0.092837	-0.012694	0.058099	0.018994	0.027437	0.146525	0.146525	1.387922	0.951268	0.000000	0.000000	0.000000	0.000000	0.000000	0.000000	0.000000	0.000000	0.000000	0.000000	0.000000	0.000000	0.000000	0.000000	0.000000	0.000000	0.000000	0.000000	0.000000	0.000000	0.000000	0.000000
0.070000	-0.011760	-0.295971	0.149686	0.017673	-0.004430	0.104602	-0.109989	-0.092835	-0.012726	0.058081	0.018968	0.027437	0.146525	0.146525	1.388182	0.954769	0.000000	0.000000	0.000000	0.000000	0.000000	0.000000	0.000000	0.000000	0.000000	0.000000	0.000000	0.000000	0.000000	0.000000	0.000000	0.000000	0.000000	0.000000	0.000000	0.000000	0.000000	0.000000
0.075000	-0.011759	-0.295994	0.149708	0.017658	-0.004447	0.104611	-0.110010	-0.092833	-0.012759	0.058063	0.018941	0.027437	0.146525	0.146525	1.388443	0.958234	0.000000	0.000000	0.000000	0.000000	0.000000	0.000000	0.000000	0.000000	0.000000	0.000000	0.000000	0.000000	0.000000	0.000000	0.000000	0.000000	0.000000	0.000000	0.000000	0.000000	0.000000	0.000000
0.080000	-0.011759	-0.296017	0.149731	0.017643	-0.004464	0.104621	-0.110032	-0.092830	-0.012791	0.058046	0.018916	0.027437	0.146525	0.146525	1.388703	0.961665	0.000000	0.000000	0.000000	0.000000	0.000000	0.000000	0.000000	0.000000	0.000000	0.000000	0.000000	0.000000	0.000000	0.000000	0.000000	0.000000	0.000000	0.000000	0.000000	0.000000	0.000000	0.000000
0.085000	-0.011758	-0.296040	0.149754	0.017628	-0.004480	0.104630	-0.110053	-0.092827	-0.012824	0.058029	0.018890	0.027437	0.146525	0.146525	1.388963	0.965061	0.000000	0.000000	0.000000	0.000000	0.000000	0.000000	0.000000	0.000000	0.000000	0.000000	0.000000	0.000000	0.000000	0.000000	0.000000	0.000000	0.000000	0.000000	0.000000	0.000000	0.000000	0.000000
0.090000	-0.011758	-0.296064	0.149777	0.017615	-0.004496	0.104640	-0.110074	-0.092823	-0.012857	0.058013	0.018866	0.027437	0.146525	0.146525	1.389222	0.968423	0.000000	0.000000	0.000000	0.000000	0.000000	0.000000	0.000000	0.000000	0.000000	0.000000	0.000000	0.000000	0.000000	0.000000	0.000000	0.000000	0.000000	0.000000	0.000000	0.000000	0.000000	0.000000
